#!OML:ASF X:\für Bonn\!DataBase\2005_08_10_Bjorn_Final\c3d\bjorn.ASF
:FULLY-SPECIFIED
:DEGREES
66
root 4.93793 24.0869 13.2859 3.01707 -8.97267 360.545
lowerback -2.13371 0.595859 1.07125
upperback 6.12084 0.720916 0.0556124
thorax 7.5998 0.413274 -0.479342
lowerneck -3.15464 -0.466569 1.7626
upperneck 8.7179 -0.555206 -2.1922
head 3.34979 -0.303056 -1.04585
rclavicle 1.83876e-014 -1.13307e-014
rhumerus -33.1262 -17.9332 -71.604
rradius 102.917
rwrist -15.8487
rhand -13.1642 14.3794
rfingers 7.12502
rthumb 12.9349 -15.1997
lclavicle 1.83876e-014 -1.13307e-014
lhumerus -25.2288 1.18864 74.6296
lradius 92.3128
lwrist 29.0103
lhand -32.6504 -13.6235
lfingers 7.12502
lthumb -5.87671 16.275
rfemur -16.13 -1.36912 15.7346
rtibia 38.8145
rfoot 18.6928 14.3477
rtoes -10.7061
lfemur -12.8172 1.64565 -16.8555
ltibia 33.9936
lfoot 20.347 -4.30354
ltoes -10.4841
67
root 4.95793 24.1246 13.4426 3.15734 -8.96866 360.547
lowerback -1.73973 0.597556 1.10527
upperback 6.31821 0.722511 0.0769771
thorax 7.58295 0.41578 -0.478701
lowerneck -3.45628 -0.53163 1.80191
upperneck 8.77852 -0.634847 -2.34701
head 3.42724 -0.348526 -1.11023
rclavicle 1.04362e-014 -6.16232e-015
rhumerus -33.2271 -17.8213 -72.2004
rradius 101.926
rwrist -15.666
rhand -12.9863 14.6599
rfingers 7.12502
rthumb 13.1064 -14.9082
lclavicle 1.04362e-014 -6.16232e-015
lhumerus -25.4067 0.53492 75.2781
lradius 91.2652
lwrist 29.3579
lhand -32.6115 -13.2792
lfingers 7.12502
lthumb -5.83915 16.6203
rfemur -16.9451 -1.35415 15.8442
rtibia 38.4715
rfoot 18.3523 14.8578
rtoes -9.85198
lfemur -13.544 1.9718 -16.7565
ltibia 33.9371
lfoot 19.8328 -4.33543
ltoes -11.8592
68
root 4.98001 24.1547 13.6027 3.28787 -8.93496 360.547
lowerback -1.34372 0.581916 1.15569
upperback 6.51468 0.698952 0.117765
thorax 7.5637 0.40619 -0.468933
lowerneck -3.74834 -0.589884 1.87255
upperneck 8.81147 -0.698606 -2.60563
head 3.49398 -0.389389 -1.21407
rclavicle 1.01877e-014 -1.35174e-014
rhumerus -33.2841 -17.7512 -72.7549
rradius 100.965
rwrist -15.1974
rhand -13.0081 14.8098
rfingers 7.12502
rthumb 13.0854 -14.7597
lclavicle 1.01877e-014 -1.35174e-014
lhumerus -25.6409 -0.111009 75.9302
lradius 90.2493
lwrist 29.6717
lhand -32.6412 -12.6708
lfingers 7.12502
lthumb -5.86782 17.228
rfemur -17.6949 -1.37597 15.9361
rtibia 38.0854
rfoot 17.9071 15.3276
rtoes -9.93098
lfemur -14.2658 2.20039 -16.659
ltibia 33.8342
lfoot 19.3534 -4.29881
ltoes -13.014
69
root 5.00145 24.171 13.7671 3.44042 -8.92677 360.569
lowerback -0.985104 0.589087 1.1902
upperback 6.66696 0.708088 0.14339
thorax 7.51931 0.412076 -0.463425
lowerneck -3.98067 -0.673912 2.00295
upperneck 8.86889 -0.796619 -2.90324
head 3.55692 -0.446807 -1.34338
rclavicle -1.2424e-014 7.7526e-015
rhumerus -33.5044 -17.8246 -73.201
rradius 99.8813
rwrist -14.9029
rhand -13.0921 15.4288
rfingers 7.12502
rthumb 13.0045 -14.1459
lclavicle -1.2424e-014 7.7526e-015
lhumerus -26.0331 -0.815305 76.6016
lradius 89.1695
lwrist 29.8848
lhand -32.592 -12.252
lfingers 7.12502
lthumb -5.82027 17.6481
rfemur -18.4283 -1.31909 15.979
rtibia 37.679
rfoot 17.4849 15.5693
rtoes -9.99884
lfemur -15.0182 2.49093 -16.595
ltibia 33.6911
lfoot 18.8977 -4.32347
ltoes -14.4794
70
root 5.02337 24.1788 13.9331 3.63133 -8.87014 360.593
lowerback -0.627829 0.561875 1.24462
upperback 6.7651 0.671838 0.156326
thorax 7.41707 0.396866 -0.486032
lowerneck -4.25682 -0.723411 2.14838
upperneck 9.01874 -0.849237 -3.19373
head 3.66216 -0.481784 -1.47401
rclavicle 5.66536e-015 -1.49089e-014
rhumerus -33.7954 -17.8569 -73.6452
rradius 98.721
rwrist -14.9278
rhand -13.0626 15.7082
rfingers 7.12502
rthumb 13.0328 -13.8647
lclavicle 5.66536e-015 -1.49089e-014
lhumerus -26.639 -1.5202 77.2336
lradius 88.1676
lwrist 30.1828
lhand -32.6835 -11.9729
lfingers 7.12502
lthumb -5.90862 17.9247
rfemur -19.1649 -1.29376 16.0008
rtibia 37.2757
rfoot 17.1051 15.7327
rtoes -10.3094
lfemur -15.795 2.71051 -16.5355
ltibia 33.4786
lfoot 18.4938 -4.32387
ltoes -16.0029
71
root 5.04453 24.1738 14.0993 3.85646 -8.83878 360.619
lowerback -0.252885 0.556599 1.28683
upperback 6.81935 0.666609 0.1709
thorax 7.25777 0.39573 -0.498232
lowerneck -4.29527 -0.766359 2.14195
upperneck 8.85683 -0.906402 -3.23146
head 3.61117 -0.511727 -1.48596
rclavicle -3.57812e-015 -1.59028e-014
rhumerus -34.1522 -17.9512 -74.051
rradius 97.6429
rwrist -14.9364
rhand -13.0494 15.7782
rfingers 7.12502
rthumb 13.0455 -13.7938
lclavicle -3.57812e-015 -1.59028e-014
lhumerus -27.3252 -2.2587 77.8824
lradius 87.2172
lwrist 30.4789
lhand -32.8242 -11.5772
lfingers 7.12502
lthumb -6.04448 18.3166
rfemur -19.9557 -1.13612 16.0005
rtibia 36.9002
rfoot 16.7265 15.7328
rtoes -10.5893
lfemur -16.5999 2.94879 -16.4837
ltibia 33.201
lfoot 18.1331 -4.32057
ltoes -17.5133
